<svg xmlns="http://www.w3.org/2000/svg" viewBox="0 0 542 542" width="542" height="542">
  <path d="M 377,360 L 377,375 L 375,378 L 363,388 L 343,399 L 341,399 L 334,403 L 332,403 L 327,406 L 325,406 L 317,410 L 312,411 L 309,413 L 285,421 L 283,421 L 280,423 L 212,445 L 209,445 L 165,460 L 165,434 L 169,432 L 192,425 L 195,423 L 215,417 L 218,415 L 270,398 L 280,396 L 308,387 L 311,385 L 314,385 L 326,381 L 329,379 L 337,377 L 340,375 L 342,375 L 345,373 L 352,371 L 359,367 L 361,367 L 373,361 Z M 303,367 L 309,360 L 315,348 L 321,349 L 336,356 L 323,362 L 308,367 Z M 173,328 L 186,321 L 191,321 L 202,326 L 204,326 L 207,328 L 215,330 L 218,332 L 221,332 L 223,334 L 223,345 L 221,349 L 212,346 L 209,344 L 207,344 L 196,339 L 194,339 L 187,335 L 185,335 Z M 319,304 L 321,304 L 329,308 L 334,309 L 337,311 L 342,312 L 349,316 L 351,316 L 363,322 L 372,328 L 375,331 L 376,334 L 370,340 L 360,346 L 357,346 L 352,342 L 343,338 L 339,335 L 337,335 L 332,332 L 330,332 L 320,328 L 318,326 L 319,311 L 318,307 Z M 239,304 L 235,308 L 232,314 L 228,315 L 219,312 L 216,310 L 236,303 Z M 299,286 L 299,330 L 296,341 L 292,349 L 287,356 L 271,371 L 261,378 L 254,381 L 252,383 L 245,386 L 242,386 L 242,344 L 244,334 L 247,329 L 248,325 L 257,313 L 269,302 L 287,290 L 296,286 Z M 395,249 L 392,253 L 377,264 L 377,295 L 385,299 L 396,308 Z M 376,207 L 377,223 L 375,226 L 365,235 L 340,249 L 338,249 L 326,255 L 324,255 L 316,259 L 308,261 L 305,263 L 299,264 L 296,266 L 256,278 L 253,278 L 206,293 L 203,295 L 189,299 L 167,309 L 164,309 L 164,294 L 166,291 L 170,287 L 180,280 L 202,269 L 204,269 L 214,264 L 222,262 L 225,260 L 279,243 L 282,243 L 332,227 L 335,225 L 340,224 L 343,222 L 345,222 L 348,220 L 355,218 L 362,214 L 364,214 Z M 144,202 L 144,268 L 146,268 L 152,262 L 164,254 L 163,215 L 153,209 Z M 339,203 L 331,207 L 315,212 L 312,214 L 306,216 L 303,215 L 309,208 L 316,193 L 321,193 L 324,195 L 326,195 L 336,200 Z M 223,200 L 220,205 L 218,205 L 209,202 L 206,200 L 204,200 L 199,197 L 197,197 L 179,188 L 177,186 L 216,175 L 219,173 L 223,174 Z M 319,149 L 330,152 L 333,154 L 335,154 L 338,156 L 345,158 L 366,169 L 376,178 L 375,183 L 365,191 L 358,192 L 346,183 L 338,179 L 336,179 L 333,177 L 331,177 L 328,175 L 326,175 L 319,172 Z M 164,167 L 165,143 L 221,143 L 223,145 L 223,150 L 221,152 L 217,153 L 214,155 L 168,168 Z M 298,128 L 299,178 L 296,189 L 292,197 L 286,205 L 277,214 L 259,227 L 254,229 L 252,231 L 245,234 L 242,234 L 242,191 L 243,185 L 246,179 L 246,177 L 253,167 L 264,156 L 284,142 L 292,135 Z M 298,82 L 297,89 L 295,95 L 293,98 L 293,100 L 284,114 L 271,127 L 264,132 L 245,143 L 242,142 L 243,81 Z M 222,63 L 222,123 L 144,124 L 144,183 L 148,190 L 155,197 L 164,203 L 167,204 L 169,206 L 187,215 L 194,217 L 199,220 L 218,226 L 222,229 L 221,242 L 216,243 L 213,245 L 211,245 L 205,248 L 195,251 L 170,263 L 161,269 L 151,278 L 146,286 L 144,293 L 144,330 L 153,340 L 162,345 L 164,347 L 189,359 L 191,359 L 199,363 L 204,364 L 207,366 L 221,370 L 223,372 L 222,374 L 222,394 L 169,412 L 164,412 L 164,359 L 154,354 L 148,349 L 144,347 L 145,479 L 168,479 L 193,470 L 196,470 L 231,458 L 236,458 L 231,464 L 226,474 L 225,479 L 245,479 L 251,470 L 260,460 L 267,454 L 278,446 L 296,437 L 299,437 L 299,479 L 318,479 L 319,429 L 326,427 L 329,425 L 334,424 L 344,419 L 346,419 L 370,407 L 372,405 L 377,404 L 377,479 L 396,479 L 397,358 L 396,345 L 397,332 L 395,324 L 383,311 L 377,307 L 368,303 L 366,301 L 364,301 L 357,297 L 350,295 L 345,292 L 343,292 L 332,287 L 321,284 L 318,281 L 318,279 L 322,276 L 324,276 L 337,270 L 342,269 L 367,257 L 382,247 L 391,238 L 395,231 L 397,221 L 396,210 L 397,179 L 396,173 L 393,167 L 389,162 L 381,155 L 375,152 L 373,150 L 350,139 L 348,139 L 345,137 L 340,136 L 337,134 L 335,134 L 319,128 L 318,62 Z" fill="#000000" fill-rule="evenodd"/>
</svg>
