<svg xmlns="http://www.w3.org/2000/svg" viewBox="0 0 878 666" width="878" height="666">
  <path d="M 619,551 L 623,551 L 631,554 L 635,558 L 639,566 L 639,577 L 638,581 L 635,586 L 630,591 L 626,593 L 616,593 L 612,591 L 605,583 L 603,577 L 603,567 L 606,560 L 610,555 L 615,552 Z M 108,551 L 115,552 L 120,555 L 124,560 L 126,564 L 127,569 L 127,576 L 123,586 L 118,591 L 113,593 L 104,593 L 100,591 L 93,583 L 91,576 L 91,569 L 92,564 L 94,560 L 101,553 Z M 687,561 L 690,556 L 696,551 L 706,550 L 711,552 L 717,558 L 719,563 L 718,566 L 687,565 Z M 526,563 L 530,556 L 533,553 L 540,550 L 545,550 L 552,553 L 556,557 L 558,561 L 558,566 L 526,565 Z M 360,537 L 361,609 L 378,608 L 378,537 L 376,536 L 370,537 Z M 764,536 L 755,540 L 750,545 L 747,551 L 746,558 L 748,566 L 753,572 L 758,575 L 782,582 L 786,586 L 786,590 L 780,595 L 772,595 L 767,593 L 764,590 L 762,585 L 745,585 L 745,590 L 748,597 L 756,605 L 760,607 L 772,610 L 780,610 L 791,607 L 796,604 L 801,598 L 804,590 L 804,584 L 802,578 L 799,574 L 791,569 L 775,565 L 768,562 L 764,558 L 764,555 L 769,550 L 779,550 L 785,555 L 786,559 L 803,559 L 803,556 L 799,546 L 793,540 L 787,537 L 777,535 Z M 698,535 L 687,538 L 685,540 L 682,541 L 675,548 L 671,555 L 668,566 L 668,578 L 670,587 L 674,595 L 681,603 L 693,609 L 708,610 L 718,607 L 726,602 L 730,598 L 735,589 L 734,585 L 717,585 L 710,593 L 707,594 L 699,594 L 694,592 L 689,587 L 686,579 L 737,578 L 737,564 L 735,556 L 732,550 L 725,542 L 713,536 Z M 538,535 L 532,536 L 522,541 L 512,552 L 508,563 L 508,582 L 509,586 L 511,589 L 511,591 L 513,593 L 514,596 L 522,604 L 525,605 L 527,607 L 538,610 L 546,610 L 558,607 L 563,604 L 571,596 L 575,588 L 575,586 L 573,585 L 557,585 L 551,592 L 546,594 L 538,594 L 534,592 L 528,586 L 526,582 L 527,578 L 577,578 L 577,564 L 572,550 L 566,543 L 560,539 L 553,536 Z M 392,537 L 393,609 L 410,608 L 410,562 L 413,556 L 415,554 L 422,551 L 425,551 L 430,553 L 433,556 L 436,563 L 437,609 L 454,609 L 454,561 L 460,553 L 465,551 L 469,551 L 474,553 L 477,556 L 479,560 L 480,566 L 480,609 L 497,609 L 497,556 L 493,546 L 489,541 L 479,536 L 469,535 L 463,536 L 457,539 L 450,547 L 447,543 L 442,539 L 436,536 L 431,535 L 424,535 L 420,536 L 414,539 L 410,543 L 409,536 Z M 234,535 L 226,537 L 220,540 L 214,545 L 209,552 L 205,564 L 205,581 L 207,588 L 211,596 L 219,604 L 230,609 L 242,610 L 251,608 L 259,604 L 266,597 L 270,589 L 271,584 L 252,584 L 252,586 L 250,589 L 244,593 L 237,594 L 232,592 L 226,586 L 223,578 L 223,566 L 225,560 L 231,553 L 235,551 L 242,551 L 245,552 L 251,557 L 252,560 L 271,561 L 271,559 L 267,549 L 264,545 L 258,540 L 249,536 L 244,535 Z M 198,535 L 191,536 L 185,539 L 179,545 L 177,536 L 160,537 L 160,609 L 178,608 L 178,567 L 180,562 L 186,556 L 193,554 L 198,555 Z M 84,543 L 79,549 L 76,555 L 73,565 L 73,579 L 74,585 L 81,599 L 88,605 L 94,608 L 101,610 L 108,610 L 116,608 L 125,602 L 126,600 L 127,609 L 145,608 L 144,536 L 127,536 L 126,545 L 120,539 L 114,536 L 109,535 L 97,536 L 88,540 Z M 657,512 L 639,512 L 638,544 L 635,541 L 628,537 L 621,535 L 613,535 L 605,537 L 598,541 L 593,546 L 589,552 L 586,560 L 585,566 L 585,579 L 588,590 L 591,596 L 598,604 L 601,605 L 603,607 L 613,610 L 621,610 L 632,606 L 638,601 L 639,609 L 657,608 Z M 281,512 L 282,521 L 281,530 L 281,544 L 282,549 L 281,603 L 282,609 L 299,609 L 299,567 L 301,559 L 308,552 L 311,551 L 317,551 L 322,553 L 325,556 L 328,563 L 329,609 L 346,608 L 346,562 L 345,555 L 343,549 L 340,544 L 336,540 L 328,536 L 323,535 L 315,535 L 311,536 L 304,540 L 300,544 L 299,539 L 300,513 L 298,511 Z M 366,507 L 362,509 L 359,513 L 359,522 L 360,524 L 365,528 L 374,528 L 378,525 L 380,521 L 380,514 L 373,507 Z M 545,353 L 545,368 L 543,371 L 531,381 L 511,392 L 509,392 L 502,396 L 500,396 L 495,399 L 493,399 L 485,403 L 480,404 L 477,406 L 453,414 L 451,414 L 448,416 L 380,438 L 377,438 L 333,453 L 333,427 L 337,425 L 360,418 L 363,416 L 383,410 L 386,408 L 438,391 L 448,389 L 476,380 L 479,378 L 482,378 L 494,374 L 497,372 L 505,370 L 508,368 L 510,368 L 513,366 L 520,364 L 527,360 L 529,360 L 541,354 Z M 471,360 L 477,353 L 483,341 L 489,342 L 504,349 L 491,355 L 476,360 Z M 341,321 L 354,314 L 359,314 L 370,319 L 372,319 L 375,321 L 383,323 L 386,325 L 389,325 L 391,327 L 391,338 L 389,342 L 380,339 L 377,337 L 375,337 L 364,332 L 362,332 L 355,328 L 353,328 Z M 487,297 L 489,297 L 497,301 L 502,302 L 505,304 L 510,305 L 517,309 L 519,309 L 531,315 L 540,321 L 543,324 L 544,327 L 538,333 L 528,339 L 525,339 L 520,335 L 511,331 L 507,328 L 505,328 L 500,325 L 498,325 L 488,321 L 486,319 L 487,304 L 486,300 Z M 407,297 L 403,301 L 400,307 L 396,308 L 387,305 L 384,303 L 404,296 Z M 467,279 L 467,323 L 464,334 L 460,342 L 455,349 L 439,364 L 429,371 L 422,374 L 420,376 L 413,379 L 410,379 L 410,337 L 412,327 L 415,322 L 416,318 L 425,306 L 437,295 L 455,283 L 464,279 Z M 563,242 L 560,246 L 545,257 L 545,288 L 553,292 L 564,301 Z M 544,200 L 545,216 L 543,219 L 533,228 L 508,242 L 506,242 L 494,248 L 492,248 L 484,252 L 476,254 L 473,256 L 467,257 L 464,259 L 424,271 L 421,271 L 374,286 L 371,288 L 357,292 L 335,302 L 332,302 L 332,287 L 334,284 L 338,280 L 348,273 L 370,262 L 372,262 L 382,257 L 390,255 L 393,253 L 447,236 L 450,236 L 500,220 L 503,218 L 508,217 L 511,215 L 513,215 L 516,213 L 523,211 L 530,207 L 532,207 Z M 312,195 L 312,261 L 314,261 L 320,255 L 332,247 L 331,208 L 321,202 Z M 507,196 L 499,200 L 483,205 L 480,207 L 474,209 L 471,208 L 477,201 L 484,186 L 489,186 L 492,188 L 494,188 L 504,193 Z M 391,193 L 388,198 L 386,198 L 377,195 L 374,193 L 372,193 L 367,190 L 365,190 L 347,181 L 345,179 L 384,168 L 387,166 L 391,167 Z M 487,142 L 498,145 L 501,147 L 503,147 L 506,149 L 513,151 L 534,162 L 544,171 L 543,176 L 533,184 L 526,185 L 514,176 L 506,172 L 504,172 L 501,170 L 499,170 L 496,168 L 494,168 L 487,165 Z M 332,160 L 333,136 L 389,136 L 391,138 L 391,143 L 389,145 L 385,146 L 382,148 L 336,161 Z M 466,121 L 467,171 L 464,182 L 460,190 L 454,198 L 445,207 L 427,220 L 422,222 L 420,224 L 413,227 L 410,227 L 410,184 L 411,178 L 414,172 L 414,170 L 421,160 L 432,149 L 452,135 L 460,128 Z M 466,75 L 465,82 L 463,88 L 461,91 L 461,93 L 452,107 L 439,120 L 432,125 L 413,136 L 410,135 L 411,74 Z M 390,56 L 390,116 L 312,117 L 312,176 L 316,183 L 323,190 L 332,196 L 335,197 L 337,199 L 355,208 L 362,210 L 367,213 L 386,219 L 390,222 L 389,235 L 384,236 L 381,238 L 379,238 L 373,241 L 363,244 L 338,256 L 329,262 L 319,271 L 314,279 L 312,286 L 312,323 L 321,333 L 330,338 L 332,340 L 357,352 L 359,352 L 367,356 L 372,357 L 375,359 L 389,363 L 391,365 L 390,367 L 390,387 L 337,405 L 332,405 L 332,352 L 322,347 L 316,342 L 312,340 L 313,472 L 336,472 L 361,463 L 364,463 L 399,451 L 404,451 L 399,457 L 394,467 L 393,472 L 413,472 L 419,463 L 428,453 L 435,447 L 446,439 L 464,430 L 467,430 L 467,472 L 486,472 L 487,422 L 494,420 L 497,418 L 502,417 L 512,412 L 514,412 L 538,400 L 540,398 L 545,397 L 545,472 L 564,472 L 565,351 L 564,338 L 565,325 L 563,317 L 551,304 L 545,300 L 536,296 L 534,294 L 532,294 L 525,290 L 518,288 L 513,285 L 511,285 L 500,280 L 489,277 L 486,274 L 486,272 L 490,269 L 492,269 L 505,263 L 510,262 L 535,250 L 550,240 L 559,231 L 563,224 L 565,214 L 564,203 L 565,172 L 564,166 L 561,160 L 557,155 L 549,148 L 543,145 L 541,143 L 518,132 L 516,132 L 513,130 L 508,129 L 505,127 L 503,127 L 487,121 L 486,55 Z" fill="#FFFFFF" fill-rule="evenodd"/>
</svg>
